<svg width="1367" height="362" viewBox="0 0 1367 362" fill="none" xmlns="http://www.w3.org/2000/svg">
<g opacity="0.99" filter="url(#filter0_g_44_227)">
<path d="M0 48C0 21.4903 21.4903 0 48 0H1318.24C1344.75 0 1366.24 21.4903 1366.24 48V313.148C1366.24 339.658 1344.75 361.148 1318.24 361.148H48C21.4903 361.148 0 339.658 0 313.148V48Z" fill="url(#paint0_linear_44_227)" fill-opacity="0.19"/>
<path d="M48 0.5H1318.24C1344.47 0.5 1365.74 21.7665 1365.74 48V313.148C1365.74 339.382 1344.47 360.648 1318.24 360.648H48C21.7665 360.648 0.5 339.382 0.5 313.148V48C0.500002 21.7665 21.7665 0.5 48 0.5Z" stroke="url(#paint1_linear_44_227)" stroke-opacity="0.54"/>
</g>
<defs>
<filter id="filter0_g_44_227" x="0" y="0" width="1366.24" height="361.148" filterUnits="userSpaceOnUse" color-interpolation-filters="sRGB">
<feFlood flood-opacity="0" result="BackgroundImageFix"/>
<feBlend mode="normal" in="SourceGraphic" in2="BackgroundImageFix" result="shape"/>
<feTurbulence type="fractalNoise" baseFrequency="inf inf" numOctaves="3" seed="9907" />
<feDisplacementMap in="shape" scale="0" xChannelSelector="R" yChannelSelector="G" result="displacedImage" width="100%" height="100%" />
<feMerge result="effect1_texture_44_227">
<feMergeNode in="displacedImage"/>
</feMerge>
</filter>
<linearGradient id="paint0_linear_44_227" x1="36.3381" y1="27.3993" x2="1331.39" y2="156.927" gradientUnits="userSpaceOnUse">
<stop stop-color="white"/>
<stop offset="0.593528" stop-color="#384074" stop-opacity="0.64"/>
<stop offset="1" stop-color="#120F3B"/>
</linearGradient>
<linearGradient id="paint1_linear_44_227" x1="1388.33" y1="180.574" x2="15.7282" y2="139.462" gradientUnits="userSpaceOnUse">
<stop stop-color="white"/>
<stop offset="1" stop-color="#1C194D"/>
</linearGradient>
</defs>
</svg>
