<svg width="104" height="31" viewBox="0 0 104 31" fill="none" xmlns="http://www.w3.org/2000/svg">
<g opacity="0.99" filter="url(#filter0_g_117_245)">
<g clip-path="url(#paint0_diamond_117_245_clip_path)" data-figma-skip-parse="true"><g transform="matrix(0.0831296 0.0205375 -6.24818e-05 0.0228583 11.7012 -4.07902e-07)"><rect x="0" y="0" width="1134.68" height="1590.69" fill="url(#paint0_diamond_117_245)" opacity="0.32" shape-rendering="crispEdges"/><rect x="0" y="0" width="1134.68" height="1590.69" transform="scale(1 -1)" fill="url(#paint0_diamond_117_245)" opacity="0.32" shape-rendering="crispEdges"/><rect x="0" y="0" width="1134.68" height="1590.69" transform="scale(-1 1)" fill="url(#paint0_diamond_117_245)" opacity="0.32" shape-rendering="crispEdges"/><rect x="0" y="0" width="1134.68" height="1590.69" transform="scale(-1)" fill="url(#paint0_diamond_117_245)" opacity="0.32" shape-rendering="crispEdges"/></g></g><path d="M0 15.5C0 6.93958 6.93959 -2.04472e-06 15.5 -2.04472e-06H88.5C97.0604 -2.04472e-06 104 6.93958 104 15.5C104 24.0604 97.0604 31 88.5 31H15.5C6.93958 31 0 24.0604 0 15.5Z" data-figma-gradient-fill="{&#34;type&#34;:&#34;GRADIENT_DIAMOND&#34;,&#34;stops&#34;:[{&#34;color&#34;:{&#34;r&#34;:0.043137256056070328,&#34;g&#34;:0.070588238537311554,&#34;b&#34;:0.21960784494876862,&#34;a&#34;:1.0},&#34;position&#34;:0.0},{&#34;color&#34;:{&#34;r&#34;:1.0,&#34;g&#34;:1.0,&#34;b&#34;:1.0,&#34;a&#34;:1.0},&#34;position&#34;:1.0}],&#34;stopsVar&#34;:[{&#34;color&#34;:{&#34;r&#34;:0.043137256056070328,&#34;g&#34;:0.070588238537311554,&#34;b&#34;:0.21960784494876862,&#34;a&#34;:1.0},&#34;position&#34;:0.0},{&#34;color&#34;:{&#34;r&#34;:1.0,&#34;g&#34;:1.0,&#34;b&#34;:1.0,&#34;a&#34;:1.0},&#34;position&#34;:1.0}],&#34;transform&#34;:{&#34;m00&#34;:166.25924682617188,&#34;m01&#34;:-0.12496365606784821,&#34;m02&#34;:-71.3659667968750,&#34;m10&#34;:41.075099945068359,&#34;m11&#34;:45.716522216796875,&#34;m12&#34;:-43.395809173583984},&#34;opacity&#34;:0.31999999284744263,&#34;blendMode&#34;:&#34;NORMAL&#34;,&#34;visible&#34;:true}"/>
<path d="M15.5 1H88.5C96.5081 1 103 7.49187 103 15.5C103 23.5081 96.5081 30 88.5 30H15.5C7.49187 30 1 23.5081 1 15.5C1 7.49187 7.49187 1 15.5 1Z" stroke="url(#paint1_linear_117_245)" stroke-width="2"/>
</g>
<defs>
<filter id="filter0_g_117_245" x="0" y="0" width="104" height="31" filterUnits="userSpaceOnUse" color-interpolation-filters="sRGB">
<feFlood flood-opacity="0" result="BackgroundImageFix"/>
<feBlend mode="normal" in="SourceGraphic" in2="BackgroundImageFix" result="shape"/>
<feTurbulence type="fractalNoise" baseFrequency="inf inf" numOctaves="3" seed="9907" />
<feDisplacementMap in="shape" scale="0" xChannelSelector="R" yChannelSelector="G" result="displacedImage" width="100%" height="100%" />
<feMerge result="effect1_texture_117_245">
<feMergeNode in="displacedImage"/>
</feMerge>
</filter>
<clipPath id="paint0_diamond_117_245_clip_path"><path d="M0 15.5C0 6.93958 6.93959 -2.04472e-06 15.5 -2.04472e-06H88.5C97.0604 -2.04472e-06 104 6.93958 104 15.5C104 24.0604 97.0604 31 88.5 31H15.5C6.93958 31 0 24.0604 0 15.5Z"/></clipPath><linearGradient id="paint0_diamond_117_245" x1="0" y1="0" x2="500" y2="500" gradientUnits="userSpaceOnUse">
<stop stop-color="#0B1238"/>
<stop offset="1" stop-color="white"/>
</linearGradient>
<linearGradient id="paint1_linear_117_245" x1="54.2991" y1="7.50809e-08" x2="53.8875" y2="28.1745" gradientUnits="userSpaceOnUse">
<stop offset="0.0312441" stop-color="#B8C7E5"/>
<stop offset="0.303355" stop-color="white" stop-opacity="0.741418"/>
<stop offset="0.985597" stop-color="white" stop-opacity="0.07"/>
</linearGradient>
</defs>
</svg>
