<svg width="848" height="101" viewBox="0 0 848 101" fill="none" xmlns="http://www.w3.org/2000/svg">
<g opacity="0.99" filter="url(#filter0_g_2003_30)">
<g clip-path="url(#paint0_diamond_2003_30_clip_path)" data-figma-skip-parse="true"><g transform="matrix(0.841828 0.0584553 0.00125027 0.0923593 119.757 25.1697)"><rect x="0" y="0" width="869.983" height="957.222" fill="url(#paint0_diamond_2003_30)" opacity="0.32" shape-rendering="crispEdges"/><rect x="0" y="0" width="869.983" height="957.222" transform="scale(1 -1)" fill="url(#paint0_diamond_2003_30)" opacity="0.32" shape-rendering="crispEdges"/><rect x="0" y="0" width="869.983" height="957.222" transform="scale(-1 1)" fill="url(#paint0_diamond_2003_30)" opacity="0.32" shape-rendering="crispEdges"/><rect x="0" y="0" width="869.983" height="957.222" transform="scale(-1)" fill="url(#paint0_diamond_2003_30)" opacity="0.32" shape-rendering="crispEdges"/></g></g><path d="M0 50.4507C0 22.5876 22.5876 0 50.4507 0H796.6C824.463 0 847.051 22.5876 847.051 50.4507C847.051 78.3139 824.463 100.901 796.6 100.901H50.4507C22.5876 100.901 0 78.3139 0 50.4507Z" data-figma-gradient-fill="{&#34;type&#34;:&#34;GRADIENT_DIAMOND&#34;,&#34;stops&#34;:[{&#34;color&#34;:{&#34;r&#34;:0.197533980011940,&#34;g&#34;:0.16768077015876770,&#34;b&#34;:0.32888853549957275,&#34;a&#34;:1.0},&#34;position&#34;:0.0},{&#34;color&#34;:{&#34;r&#34;:1.0,&#34;g&#34;:1.0,&#34;b&#34;:1.0,&#34;a&#34;:1.0},&#34;position&#34;:0.90027362108230591}],&#34;stopsVar&#34;:[{&#34;color&#34;:{&#34;r&#34;:0.197533980011940,&#34;g&#34;:0.16768077015876770,&#34;b&#34;:0.32888853549957275,&#34;a&#34;:1.0},&#34;position&#34;:0.0},{&#34;color&#34;:{&#34;r&#34;:1.0,&#34;g&#34;:1.0,&#34;b&#34;:1.0,&#34;a&#34;:1.0},&#34;position&#34;:0.90027362108230591}],&#34;transform&#34;:{&#34;m00&#34;:1683.6569824218750,&#34;m01&#34;:2.5005426406860352,&#34;m02&#34;:-723.32159423828125,&#34;m10&#34;:116.91061401367188,&#34;m11&#34;:184.71858215332031,&#34;m12&#34;:-125.64485168457031},&#34;opacity&#34;:0.31999999284744263,&#34;blendMode&#34;:&#34;NORMAL&#34;,&#34;visible&#34;:true}"/>
<path d="M50.4512 2H796.6C823.358 2 845.051 23.6926 845.051 50.4512C845.051 77.2096 823.358 98.9014 796.6 98.9014H50.4512C23.6927 98.9014 2.00024 77.2096 2 50.4512C2 23.9017 23.3544 2.33934 49.8242 2.00391L50.4512 2Z" stroke="url(#paint1_linear_2003_30)" stroke-width="4"/>
</g>
<defs>
<filter id="filter0_g_2003_30" x="0" y="0" width="847.051" height="100.901" filterUnits="userSpaceOnUse" color-interpolation-filters="sRGB">
<feFlood flood-opacity="0" result="BackgroundImageFix"/>
<feBlend mode="normal" in="SourceGraphic" in2="BackgroundImageFix" result="shape"/>
<feTurbulence type="fractalNoise" baseFrequency="inf inf" numOctaves="3" seed="9907" />
<feDisplacementMap in="shape" scale="0" xChannelSelector="R" yChannelSelector="G" result="displacedImage" width="100%" height="100%" />
<feMerge result="effect1_texture_2003_30">
<feMergeNode in="displacedImage"/>
</feMerge>
</filter>
<clipPath id="paint0_diamond_2003_30_clip_path"><path d="M0 50.4507C0 22.5876 22.5876 0 50.4507 0H796.6C824.463 0 847.051 22.5876 847.051 50.4507C847.051 78.3139 824.463 100.901 796.6 100.901H50.4507C22.5876 100.901 0 78.3139 0 50.4507Z"/></clipPath><linearGradient id="paint0_diamond_2003_30" x1="0" y1="0" x2="500" y2="500" gradientUnits="userSpaceOnUse">
<stop stop-color="#322B54"/>
<stop offset="0.900274" stop-color="white"/>
</linearGradient>
<linearGradient id="paint1_linear_2003_30" x1="442.251" y1="2.4438e-07" x2="441.715" y2="91.7213" gradientUnits="userSpaceOnUse">
<stop offset="0.0312441" stop-color="#B8C7E5"/>
<stop offset="0.303355" stop-color="white" stop-opacity="0.741418"/>
<stop offset="0.985597" stop-color="white" stop-opacity="0.07"/>
</linearGradient>
</defs>
</svg>
