<svg width="240" height="32" viewBox="0 0 240 32" fill="none" xmlns="http://www.w3.org/2000/svg">
<g opacity="0.99" filter="url(#filter0_g_117_250)">
<g clip-path="url(#paint0_diamond_117_250_clip_path)" data-figma-skip-parse="true"><g transform="matrix(0.191838 0.0212001 -0.000144189 0.0235956 27.0027 -4.2106e-07)"><rect x="0" y="0" width="1121.05" height="1575.72" fill="url(#paint0_diamond_117_250)" opacity="0.32" shape-rendering="crispEdges"/><rect x="0" y="0" width="1121.05" height="1575.72" transform="scale(1 -1)" fill="url(#paint0_diamond_117_250)" opacity="0.32" shape-rendering="crispEdges"/><rect x="0" y="0" width="1121.05" height="1575.72" transform="scale(-1 1)" fill="url(#paint0_diamond_117_250)" opacity="0.32" shape-rendering="crispEdges"/><rect x="0" y="0" width="1121.05" height="1575.72" transform="scale(-1)" fill="url(#paint0_diamond_117_250)" opacity="0.32" shape-rendering="crispEdges"/></g></g><path d="M0 16C0 7.16344 7.16345 0 16 0H224C232.837 0 240 7.16344 240 16C240 24.8366 232.837 32 224 32H16C7.16344 32 0 24.8366 0 16Z" data-figma-gradient-fill="{&#34;type&#34;:&#34;GRADIENT_DIAMOND&#34;,&#34;stops&#34;:[{&#34;color&#34;:{&#34;r&#34;:0.043137256056070328,&#34;g&#34;:0.070588238537311554,&#34;b&#34;:0.21960784494876862,&#34;a&#34;:1.0},&#34;position&#34;:0.0},{&#34;color&#34;:{&#34;r&#34;:1.0,&#34;g&#34;:1.0,&#34;b&#34;:1.0,&#34;a&#34;:1.0},&#34;position&#34;:1.0}],&#34;stopsVar&#34;:[{&#34;color&#34;:{&#34;r&#34;:0.043137256056070328,&#34;g&#34;:0.070588238537311554,&#34;b&#34;:0.21960784494876862,&#34;a&#34;:1.0},&#34;position&#34;:0.0},{&#34;color&#34;:{&#34;r&#34;:1.0,&#34;g&#34;:1.0,&#34;b&#34;:1.0,&#34;a&#34;:1.0},&#34;position&#34;:1.0}],&#34;transform&#34;:{&#34;m00&#34;:383.67517089843750,&#34;m01&#34;:-0.28837767243385315,&#34;m02&#34;:-164.69068908691406,&#34;m10&#34;:42.400100708007812,&#34;m11&#34;:47.191246032714844,&#34;m12&#34;:-44.795673370361328},&#34;opacity&#34;:0.31999999284744263,&#34;blendMode&#34;:&#34;NORMAL&#34;,&#34;visible&#34;:true}"/>
<path d="M16 1H224C232.284 1 239 7.71573 239 16C239 24.2843 232.284 31 224 31H16C7.71573 31 1 24.2843 1 16C1 7.71573 7.71573 1 16 1Z" stroke="url(#paint1_linear_117_250)" stroke-width="2"/>
</g>
<defs>
<filter id="filter0_g_117_250" x="0" y="0" width="240" height="32" filterUnits="userSpaceOnUse" color-interpolation-filters="sRGB">
<feFlood flood-opacity="0" result="BackgroundImageFix"/>
<feBlend mode="normal" in="SourceGraphic" in2="BackgroundImageFix" result="shape"/>
<feTurbulence type="fractalNoise" baseFrequency="inf inf" numOctaves="3" seed="9907" />
<feDisplacementMap in="shape" scale="0" xChannelSelector="R" yChannelSelector="G" result="displacedImage" width="100%" height="100%" />
<feMerge result="effect1_texture_117_250">
<feMergeNode in="displacedImage"/>
</feMerge>
</filter>
<clipPath id="paint0_diamond_117_250_clip_path"><path d="M0 16C0 7.16344 7.16345 0 16 0H224C232.837 0 240 7.16344 240 16C240 24.8366 232.837 32 224 32H16C7.16344 32 0 24.8366 0 16Z"/></clipPath><linearGradient id="paint0_diamond_117_250" x1="0" y1="0" x2="500" y2="500" gradientUnits="userSpaceOnUse">
<stop stop-color="#0B1238"/>
<stop offset="1" stop-color="white"/>
</linearGradient>
<linearGradient id="paint1_linear_117_250" x1="125.306" y1="7.75029e-08" x2="125.115" y2="29.0883" gradientUnits="userSpaceOnUse">
<stop offset="0.0312441" stop-color="#B8C7E5"/>
<stop offset="0.303355" stop-color="white" stop-opacity="0.741418"/>
<stop offset="0.985597" stop-color="white" stop-opacity="0.07"/>
</linearGradient>
</defs>
</svg>
