<svg width="272" height="90" viewBox="0 0 272 90" fill="none" xmlns="http://www.w3.org/2000/svg">
<g clip-path="url(#clip0_2113_30)">
<path d="M139.561 67.0216V53.4806C139.424 53.4806 139.424 53.3438 139.287 53.3438L134.083 54.0277V55.3955L136.274 55.9426V65.5171C135.589 65.9274 134.904 66.201 134.22 66.4745C133.535 66.7481 132.85 66.8849 132.439 66.8849C131.48 66.8849 130.933 66.6113 130.522 66.201C130.111 65.6539 129.974 64.97 129.974 63.8757V53.4806L129.7 53.3438L124.495 54.0277V55.3955C124.906 55.5323 125.18 55.669 125.591 55.669C126.002 55.8058 126.276 55.8058 126.687 55.9426V65.2435C126.687 66.8849 127.098 67.9791 127.782 68.663C128.604 69.3469 129.563 69.6204 130.933 69.6204C131.343 69.6204 131.891 69.6204 132.439 69.4836C132.987 69.4836 133.535 69.3469 134.083 69.2101C134.904 68.5262 135.589 67.8423 136.411 67.0216L137.096 69.3469L137.37 69.4836L142.026 68.7997V67.432C141.615 67.2952 141.204 67.2952 140.794 67.1584C140.246 67.2952 139.835 67.1584 139.561 67.0216ZM159.42 57.7207C159.42 56.2162 159.009 55.1219 158.324 54.438C157.639 53.7542 156.544 53.4806 155.174 53.4806C154.626 53.4806 154.216 53.4806 153.531 53.6174C152.983 53.6174 152.435 53.7542 151.887 53.8909L149.696 56.0794L149.011 53.7542L148.737 53.6174C148.052 53.7542 147.231 53.8909 146.546 54.0277C145.861 54.1645 145.039 54.3013 144.354 54.438V55.8058L146.546 56.3529V67.432L144.218 68.2526V69.6204H152.024V68.2526L149.833 67.5687V57.4472C150.518 57.0368 151.202 56.7633 151.887 56.4897C152.572 56.2162 153.12 56.2162 153.805 56.2162C154.763 56.2162 155.448 56.4897 155.722 56.9C156.133 57.3104 156.27 58.1311 156.27 59.0885V67.0216L154.079 67.8423V69.2101H161.748V67.8423L159.557 67.1584L159.42 57.7207ZM166.268 47.3256C165.857 47.7359 165.583 48.283 165.583 48.8301C165.583 49.514 165.72 49.9244 166.131 50.4715C166.542 50.8818 167.09 51.1554 167.774 51.1554C168.459 51.1554 169.007 50.8818 169.418 50.4715C169.829 50.0611 170.103 49.514 170.103 48.8301C170.103 48.283 169.829 47.7359 169.418 47.3256C169.007 46.9152 168.459 46.6417 167.774 46.6417C167.227 46.7785 166.816 46.9152 166.268 47.3256ZM169.692 60.3195V53.4806L169.418 53.3438L164.214 54.1645V55.5323C164.624 55.669 164.898 55.8058 165.309 55.8058C165.72 55.9426 165.994 55.9426 166.405 56.0794V67.0216L163.94 67.9791V69.3469H172.02V67.9791L169.555 67.1584C169.692 64.97 169.692 62.6447 169.692 60.3195ZM187.907 53.6174H183.251V54.9852L185.168 55.669C185.168 55.8058 185.031 56.0794 184.757 56.6265C184.62 57.0368 184.346 57.7207 184.209 58.2678C183.936 58.9517 183.799 59.6356 183.525 60.3195L182.84 62.3712C182.566 63.0551 182.429 63.6022 182.292 64.0125C182.155 64.2861 182.155 64.5596 182.018 64.8332H181.881L178.868 56.7633C178.594 56.2162 178.457 55.5323 178.32 54.8484C178.183 54.3013 178.046 53.7542 178.046 53.0703L172.705 53.3438V54.7116L174.348 55.2587C174.896 56.6265 175.444 57.8575 175.992 59.2253C176.403 60.1827 176.814 61.1402 177.225 62.2344C177.635 63.3286 178.046 64.2861 178.457 65.2435C178.868 66.201 179.142 67.0216 179.553 67.7055C179.827 68.3894 180.101 68.9365 180.101 69.0733L182.018 68.663L186.127 58.9517C186.538 57.9943 186.949 57.0368 187.496 56.2162C187.907 55.3955 188.455 54.7116 189.14 54.1645L189.003 52.7967C188.729 53.6174 188.455 53.6174 187.907 53.6174ZM202.425 55.8058C201.877 55.1219 201.329 54.5748 200.508 54.1645C199.686 53.7542 198.59 53.4806 197.221 53.4806C195.714 53.4806 194.481 53.7542 193.523 54.1645C192.564 54.7116 191.742 55.2587 191.194 56.0794C190.647 56.9001 190.236 57.7207 189.962 58.6782C189.688 59.6356 189.551 60.7298 189.688 61.6873C189.688 62.9183 189.825 64.0125 190.099 65.1067C190.373 66.0642 190.783 66.8849 191.331 67.5687C191.879 68.2526 192.701 68.7997 193.66 69.2101C194.618 69.6204 195.714 69.7572 197.084 69.7572C198.179 69.7572 199.275 69.6204 200.371 69.2101C201.466 68.9365 202.288 68.3894 203.11 67.8423L202.562 66.201C201.74 66.6113 200.918 66.7481 200.097 66.8849C199.275 67.0216 198.727 67.1584 198.179 67.1584C197.221 67.1584 196.536 67.0216 195.851 66.7481C195.303 66.4745 194.755 66.201 194.344 65.6538C193.934 65.1067 193.66 64.5596 193.523 63.8757C193.386 63.1918 193.249 62.3712 193.249 61.4137L203.384 60.8666L203.658 60.4563C203.658 59.6356 203.521 58.8149 203.384 57.9943C203.247 57.3104 202.973 56.4897 202.425 55.8058ZM193.386 59.9092C193.386 59.4988 193.386 58.9517 193.523 58.5414C193.66 57.9943 193.797 57.5839 194.07 57.1736C194.344 56.7633 194.755 56.3529 195.166 56.0794C195.577 55.8058 196.125 55.669 196.947 55.669C197.631 55.669 198.042 55.8058 198.453 55.9426C198.864 56.2162 199.138 56.4897 199.275 56.7633C199.549 57.1736 199.686 57.4472 199.686 57.9943C199.823 58.4046 199.823 58.8149 199.823 59.2253L193.386 59.9092ZM217.49 53.207C216.943 53.207 216.532 53.3438 215.984 53.4806C215.436 53.6174 215.025 53.8909 214.614 54.1645C214.203 54.438 213.793 54.7116 213.382 54.9852C212.971 55.2587 212.697 55.6691 212.286 55.9426L211.738 53.7542L211.464 53.6174L206.808 54.3013V55.669L208.999 56.2162V67.2952L206.534 68.2526V69.6204H214.614V68.2526L212.149 67.5687V57.3104L217.217 57.7207C217.49 57.3104 217.764 56.7633 218.038 56.2162C218.175 55.669 218.312 55.1219 218.312 54.5748C218.312 54.1645 218.175 53.8909 218.038 53.6174C217.901 53.207 217.764 53.207 217.49 53.207ZM230.365 61.9608C229.954 61.5505 229.406 61.2769 228.858 61.0034C228.173 60.7298 227.488 60.3195 226.941 60.0459C226.393 59.7724 225.845 59.6356 225.297 59.3621C224.886 59.2253 224.475 58.9517 224.201 58.8149C223.927 58.6782 223.654 58.4046 223.517 58.1311C223.38 57.8575 223.243 57.5839 223.38 57.3104C223.38 56.7633 223.654 56.2162 224.064 55.9426C224.475 55.6691 225.023 55.5323 225.708 55.5323C226.119 55.5323 226.53 55.5323 226.941 55.669C227.488 55.8058 227.899 55.9426 228.447 56.2162L229.543 58.8149L230.775 58.6782V54.5748C229.954 54.1645 229.132 53.8909 228.173 53.7542C227.351 53.6174 226.53 53.4806 225.708 53.4806C224.612 53.4806 223.791 53.6174 222.969 53.8909C222.284 54.1645 221.599 54.438 221.188 54.8484C220.777 55.2587 220.367 55.669 220.23 56.2162C219.956 56.7633 219.956 57.3104 219.956 57.8575C219.956 58.5414 220.093 59.0885 220.367 59.6356C220.64 60.0459 221.051 60.5931 221.462 60.8666C221.873 61.277 222.421 61.5505 223.106 61.8241L224.886 62.6447C225.297 62.9183 225.708 63.0551 226.119 63.1918C226.53 63.3286 226.804 63.6022 227.214 63.739C227.488 64.0125 227.762 64.1493 227.899 64.4228C228.036 64.6964 228.173 65.1067 228.173 65.5171C228.173 66.201 227.899 66.7481 227.351 67.1584C226.804 67.432 225.982 67.7055 225.023 67.7055C224.612 67.7055 224.064 67.5687 223.517 67.432C222.969 67.2952 222.421 67.0216 222.01 66.7481L220.64 63.8757C220.504 63.8757 220.23 64.0125 220.093 64.0125C219.956 64.0125 219.682 64.1493 219.545 64.1493L219.819 68.663C220.367 69.0733 221.188 69.3469 222.147 69.4836C223.106 69.6204 224.064 69.7572 225.023 69.7572C226.119 69.7572 227.215 69.6204 228.036 69.3469C228.858 69.0733 229.543 68.7997 230.091 68.3894C230.638 67.9791 231.049 67.432 231.323 66.8849C231.597 66.3377 231.734 65.6538 231.734 64.97C231.734 64.2861 231.597 63.739 231.46 63.1918C231.049 62.7815 230.775 62.2344 230.365 61.9608ZM237.897 51.1554C238.582 51.1554 239.13 50.8818 239.541 50.4715C239.952 50.0611 240.226 49.514 240.226 48.8301C240.226 48.283 239.952 47.7359 239.541 47.3256C239.13 46.9152 238.582 46.6417 237.897 46.6417C237.349 46.6417 236.802 46.9152 236.391 47.3256C235.98 47.7359 235.706 48.283 235.706 48.8301C235.706 49.514 235.843 49.9244 236.254 50.4715C236.665 50.8818 237.212 51.1554 237.897 51.1554ZM239.678 60.3195V53.4806L239.404 53.3438L234.199 54.1645V55.5323C234.61 55.669 234.884 55.8058 235.295 55.8058C235.706 55.9426 235.98 55.9426 236.391 56.0794V67.0216L233.925 67.9791V69.3469H242.006V67.9791L239.541 67.1584C239.678 64.97 239.678 62.6447 239.678 60.3195ZM254.058 66.7481C253.374 66.8849 252.826 67.0216 252.415 67.1584C252.004 67.2952 251.593 67.2952 251.045 67.2952C250.224 67.2952 249.676 67.1584 249.265 66.7481C248.991 66.3377 248.717 65.7906 248.717 64.97V55.669H253.374V53.8909H248.717V49.9244L248.58 49.7876L248.443 49.6508L246.663 50.1979L245.567 53.6174C245.156 53.7542 244.745 53.8909 244.334 54.0277C243.923 54.1645 243.513 54.3013 243.102 54.438V55.669H245.293V65.1067C245.293 65.9274 245.293 66.6113 245.43 67.1584C245.567 67.7055 245.841 68.2526 246.115 68.663C246.389 69.0733 246.8 69.3469 247.347 69.4836C247.895 69.6204 248.58 69.7572 249.402 69.7572C251.045 69.7572 252.689 69.3469 254.332 68.5262C254.195 68.2526 254.195 67.9791 254.058 67.7055C254.195 67.2952 254.058 67.0216 254.058 66.7481ZM271.863 54.3013C271.863 54.0277 271.863 53.8909 271.726 53.6174L265.974 53.7542V55.1219L267.891 55.8058C267.343 57.5839 266.659 59.2253 266.111 61.0034L264.33 66.201H264.193C263.782 64.6964 263.235 63.1918 262.687 61.6873C262.139 60.1827 261.591 58.6782 261.18 57.1736C260.906 56.4897 260.769 55.8058 260.632 55.2587C260.495 54.5748 260.359 54.0277 260.359 53.4806L255.154 53.7542V55.1219L256.798 55.669L259.4 62.508C260.222 64.6964 261.18 67.0216 262.002 69.2101L263.098 69.3469L262.276 71.3985C262.139 71.6721 262.139 71.9456 262.002 72.2192C261.865 72.4928 261.728 72.7663 261.454 73.0399C261.317 73.3134 261.043 73.587 260.769 73.7238L259.948 74.1341L257.208 72.4928C256.798 72.6295 256.524 72.9031 256.25 73.3134C255.976 73.7238 255.839 74.1341 255.839 74.5444C255.839 75.0915 256.113 75.6386 256.661 76.049C257.208 76.4593 257.893 76.5961 258.715 76.5961C259.948 76.5961 261.043 76.1858 261.865 75.3651C262.687 74.5444 263.372 73.4502 263.919 71.9456L266.522 65.7906C267.343 63.739 268.165 61.6873 268.987 59.6356C269.398 58.6782 269.809 57.7207 270.356 56.9C270.767 56.0794 271.315 55.3955 272 54.9852C271.863 54.8484 271.863 54.5748 271.863 54.3013ZM165.309 33.6478V22.2952L168.185 21.6113L168.048 19.6964C168.048 19.6964 166.816 19.8332 165.172 19.8332C163.666 19.8332 159.694 19.6964 159.694 19.6964L159.557 21.4745L162.159 22.2952V32.28C162.159 33.1007 162.022 33.9213 161.885 34.6052C161.748 35.2891 161.474 35.973 161.2 36.5201C160.79 37.0672 160.379 37.4776 159.694 37.7511C159.146 38.0247 158.324 38.1615 157.366 38.1615C156.407 38.1615 155.585 38.0247 154.9 37.7511C154.216 37.4776 153.805 37.0672 153.394 36.6569C153.12 36.1098 152.846 35.5627 152.709 35.0156C152.572 34.3317 152.572 33.6478 152.572 32.9639V22.432L155.311 21.7481L155.174 19.8332C155.174 19.8332 154.489 19.97 151.887 19.97C149.285 19.97 145.313 19.8332 145.313 19.8332L145.176 21.6113L147.915 22.432V34.1949C147.915 35.6994 148.189 36.7937 148.737 37.7511C149.285 38.7086 149.97 39.3925 150.792 39.9396C151.613 40.4867 152.572 40.897 153.531 41.0338C154.489 41.1706 155.448 41.3073 156.27 41.3073C157.229 41.3073 158.324 41.1706 159.283 41.0338C160.242 40.897 161.2 40.4867 162.159 39.9396C162.981 39.3925 163.666 38.5718 164.214 37.6143C164.898 36.5201 165.309 35.2891 165.309 33.6478ZM174.896 40.7602H181.059C182.429 40.7602 183.662 40.6235 184.62 40.2131C185.579 39.8028 186.538 39.3925 187.223 38.8453C187.907 38.2982 188.592 37.6143 189.003 36.7937C189.414 35.973 189.825 35.2891 190.099 34.4684C190.373 33.6478 190.51 32.9639 190.647 32.1432C190.783 31.4593 190.783 30.7754 190.783 30.0915C190.783 28.8605 190.647 27.6295 190.236 26.2618C189.962 25.0308 189.277 23.9365 188.592 22.8423C187.77 21.8849 186.675 21.0642 185.442 20.3803C184.073 19.8332 182.429 19.4229 180.512 19.4229H171.061L170.788 21.3377L173.253 22.0216V38.2982L170.514 39.1189L170.651 40.897H173.39C174.075 40.7602 174.485 40.7602 174.896 40.7602ZM177.909 22.7055H179.416C180.238 22.7055 181.059 22.8423 181.881 22.9791C182.703 23.2526 183.388 23.5262 183.936 24.0733C184.483 24.6204 185.031 25.4411 185.442 26.3985C185.853 27.356 185.99 28.587 185.99 30.0915C185.99 31.1858 185.853 32.1432 185.716 33.1007C185.579 34.0581 185.168 34.8788 184.757 35.6994C184.346 36.3833 183.662 37.0672 182.977 37.4776C182.292 37.8879 181.333 38.1615 180.238 38.1615H179.005C178.594 38.1615 178.183 38.0247 177.909 38.0247V22.7055ZM192.29 38.9821L192.427 40.7602H201.192L201.329 38.8453L198.316 38.1615L198.179 25.0308H198.316L202.699 30.9122L210.506 41.3073L212.834 40.7602V31.5961C212.834 30.2283 212.834 28.8605 212.971 27.6295V22.432L216.121 21.7481L215.984 19.8332H207.355L207.219 21.6113L210.095 22.432L210.369 33.6478H210.232L206.534 28.587L201.329 21.6113C201.192 21.3377 200.918 21.0642 200.781 20.7906C200.508 20.3803 200.371 20.1067 200.234 19.6964C199.686 19.6964 198.727 19.6964 197.494 19.8332H192.975L192.701 21.6113L195.851 22.432L195.44 38.1615L192.29 38.9821ZM124.359 38.9821L124.495 40.897C124.495 40.897 127.646 40.7602 129.426 40.7602C131.206 40.7602 134.493 40.897 134.493 40.897L134.63 38.9821L131.617 38.2982V32.1432C132.028 32.28 132.987 32.4168 134.356 32.4168L140.657 41.9912L144.354 41.1706L144.765 39.8028L138.328 31.5961C140.657 30.6387 142.985 28.8605 142.3 24.4836C141.478 19.2861 135.863 19.6964 134.356 19.6964C132.713 19.6964 128.741 20.3803 125.18 19.5596L124.632 21.6113C124.632 21.6113 125.591 22.0216 127.098 22.432V38.2982L124.359 38.9821ZM137.507 25.9882C137.507 28.0399 136.274 30.0915 131.617 29.2709V22.7055H132.165C136.411 22.2952 137.507 23.9365 137.507 25.9882Z" fill="white"/>
<path d="M55.4683 75.0912C63.6858 74.2705 70.6707 67.0213 73.6838 57.0365C73.8207 56.6261 73.5468 56.3526 73.2729 56.2158H73.1359C67.5206 55.3951 61.4945 54.848 55.3313 54.848C54.9204 54.848 54.6465 55.1216 54.6465 55.5319V74.4073C54.6465 74.8176 55.0574 75.0912 55.4683 75.0912ZM63.138 18.0547C68.7533 21.4742 73.1359 28.1763 75.3273 36.2462C75.4642 36.5198 75.7382 36.6565 76.0121 36.6565C84.0926 35.152 91.2145 32.69 96.8298 29.6808C97.1037 29.5441 97.2407 29.1337 97.1037 28.8602L96.9668 28.7234C95.1863 27.3556 93.4058 26.2614 91.4884 25.1672C88.6123 23.5258 85.5992 22.1581 82.1752 21.0638V14.4985C82.1752 11.8997 84.2296 9.84802 86.8318 9.84802H90.3927C91.0775 9.84802 91.6254 9.30091 91.6254 8.48024V1.36778C91.6254 0.683891 91.0775 0 90.3927 0H65.4662C64.7815 0 64.2336 0.547112 64.2336 1.36778V8.48024C64.2336 9.16413 64.7815 9.84802 65.4662 9.84802H69.3011C71.7663 9.84802 73.9577 11.8997 73.9577 14.4985V18.6018C70.5337 17.7812 66.9728 17.234 63.5488 16.9605C62.864 16.9605 62.5901 17.7812 63.138 18.0547ZM79.436 14.4985V20.2432C79.1621 20.1064 78.8882 20.1064 78.6143 19.9696V13.6778C78.8882 11.2158 80.5317 9.16413 82.723 8.48024C80.6687 9.84802 79.436 12.0365 79.436 14.4985ZM89.0231 2.73556V6.97568H84.6405C81.6274 6.97568 79.0252 8.89058 78.0665 11.4894C76.9708 8.7538 74.5055 6.97568 71.4924 6.97568H66.8358V2.73556H89.0231ZM76.4229 16.9605V14.4985C76.4229 11.8997 75.0534 9.57447 72.999 8.20669C75.6012 8.89058 77.5186 11.2158 77.6556 14.0881V19.5593C77.2447 19.4225 76.9708 19.2857 76.5599 19.2857V16.9605H76.4229Z" fill="white"/>
<path d="M55.0574 38.0241C61.4944 38.0241 67.7945 37.477 73.6838 36.3827C70.9446 25.0302 63.4119 16.8235 54.6465 16.2764V37.477C54.6465 37.8873 54.7835 38.0241 55.0574 38.0241Z" fill="white"/>
<path d="M96.4189 63.4649C90.8036 60.4557 83.5448 58.1305 75.4642 56.7627C75.1903 56.7627 75.0534 56.8995 74.9164 57.0363C72.7251 65.1062 68.0685 71.398 62.1793 74.6807C61.7684 74.9542 61.9053 75.5013 62.4532 75.5013C65.3293 75.2278 68.2054 74.8174 71.0816 74.2703C68.4794 77.9633 64.0967 80.2886 59.4401 80.2886H58.6183C53.6878 80.2886 49.1682 77.8266 46.566 73.7232C48.3464 74.5439 50.2638 75.2278 52.1813 75.3646C52.5921 75.3646 52.8661 75.091 52.8661 74.6807V55.5317C52.8661 55.1214 52.5921 54.8478 52.1813 54.8478C49.579 54.8478 46.9768 54.9846 44.3746 55.1214V53.6168C46.9768 53.4801 49.579 53.3433 52.1813 53.3433C52.5921 53.3433 52.8661 53.0697 52.8661 52.6594V40.3494C52.8661 39.939 52.5921 39.6655 52.1813 39.6655C49.579 39.6655 46.9768 39.5287 44.3746 39.3919V37.8874C46.9768 38.0241 49.5791 38.1609 52.3182 38.1609C52.5921 38.1609 52.8661 37.8874 52.8661 37.6138V16.9603C49.853 17.0971 46.9768 18.1913 44.3746 19.9694V18.1913C44.7855 17.9178 45.1964 17.6442 45.6072 17.5074C45.8812 17.3706 45.7442 16.8235 45.4703 16.9603C45.0594 16.9603 44.7855 17.0971 44.3746 17.0971V14.4983C44.3746 11.8995 46.429 9.84784 49.0312 9.84784H52.7291C53.4139 9.84784 54.0987 9.30073 54.0987 8.61684V1.64116C54.0987 0.957269 53.5509 0.410156 52.7291 0.410156H15.2024C14.5176 0.410156 13.8328 0.957269 13.8328 1.64116V8.61684C13.8328 9.30073 14.3807 9.84784 15.2024 9.84784H18.9003C21.5025 9.84784 23.5569 11.8995 23.5569 14.4983V16.2764V21.474C20.9547 22.4314 18.4894 23.5257 16.1611 24.8934C14.2437 25.9877 12.4632 27.0819 10.8197 28.3129C10.4089 28.5864 10.4089 29.2703 10.9567 29.4071C14.5176 31.322 18.9003 32.9633 23.6939 34.3311V35.8357C17.8046 34.3311 12.7372 32.2795 8.6284 29.9542C3.01309 34.7415 0 40.3494 0 46.094C0 51.8387 3.01309 57.5834 8.76536 62.3706C9.03927 62.5074 9.31319 62.6442 9.58711 62.5074C13.422 60.319 18.2155 58.5409 23.5569 57.0363V58.5409C19.0373 59.7719 14.9285 61.4132 11.5045 63.1913C11.2306 63.3281 11.0937 63.7384 11.2306 64.1488C11.2306 64.2855 11.3676 64.2855 11.5045 64.4223C13.0111 65.5165 14.6546 66.474 16.2981 67.2947C19.1742 68.7992 22.1873 70.167 25.4743 71.2612H25.8852C30.4048 82.2035 41.2246 89.9998 53.9617 89.9998H54.6465C66.288 89.9998 76.6969 82.7506 80.5317 71.9451V71.8083C84.5035 70.5773 88.2014 69.0728 91.4884 67.1579C93.2689 66.2004 94.9124 65.1062 96.5559 64.012C96.6928 63.8752 96.8298 63.6016 96.6928 63.4649C96.6015 63.4649 96.5102 63.4649 96.4189 63.4649ZM41.9094 14.4983V66.2004C41.9094 75.3646 49.4421 82.7506 58.7553 82.7506H59.577C65.8771 82.7506 71.6294 79.3311 74.5055 73.7232C74.5055 73.7232 74.5055 73.5864 74.6425 73.5864C74.9164 73.5864 75.0534 73.4497 75.3273 73.4497C71.7664 80.6989 64.5076 85.3494 56.1531 85.3494H55.7422C44.1007 85.3494 34.5136 75.9117 34.5136 64.4223V16.1396C34.6506 11.7627 38.3484 8.20651 42.7311 8.20651H45.7442C43.4159 9.30073 41.9094 11.7627 41.9094 14.4983ZM51.6334 2.87216V7.11228H42.7311C38.7593 7.11228 35.1984 9.57429 33.9658 13.2673C32.5962 9.57429 29.1722 7.11228 25.2004 7.11228H16.572V2.87216H51.6334ZM54.5096 87.5378H53.8248C38.6224 87.5378 26.1591 75.3646 26.1591 60.319V16.8235V14.4983C26.1591 11.7627 24.5156 9.30073 22.3243 8.20651H25.2004C29.72 8.20651 33.4179 11.7627 33.4179 16.1396V64.4223C33.4179 76.5956 43.4159 86.4436 55.6052 86.4436H56.1531C65.0554 86.4436 72.999 81.246 76.5599 73.1761C76.8338 73.1761 77.1078 73.0393 77.3817 73.0393C73.4099 81.6564 64.3706 87.5378 54.5096 87.5378Z" fill="white"/>
<path d="M98.8842 30.2276C98.6103 29.954 98.0624 29.954 97.7885 30.0908C92.1732 33.3735 84.7774 35.8355 76.4229 37.4768C75.8751 37.6136 75.6012 38.024 75.6012 38.5711C76.0121 40.8963 76.286 43.3583 76.286 45.9571C76.286 48.8294 76.0121 51.4282 75.4642 54.027C75.3273 54.5741 75.7382 55.1212 76.286 55.1212C84.5035 56.6258 91.7623 59.0878 97.2407 62.2337C97.6515 62.3705 98.0624 62.3705 98.3363 62.0969C103.815 57.3097 106.828 51.7018 106.828 45.8203C106.828 40.2124 104.089 34.8781 98.8842 30.2276ZM55.3313 53.0695C61.6314 53.0695 67.6576 53.6167 73.4099 54.5741C73.8207 54.5741 74.0947 54.4373 74.2316 54.027C74.7794 51.565 75.0534 48.8294 75.0534 46.0939C75.0534 43.6319 74.7794 41.1698 74.3686 38.8446C74.3686 38.4343 73.9577 38.2975 73.5468 38.2975C67.7945 39.255 61.6314 39.6653 55.3313 39.8021C54.9204 39.8021 54.6465 40.0756 54.6465 40.486V52.5224C54.6465 52.796 54.9204 53.0695 55.3313 53.0695Z" fill="white"/>
</g>
<defs>
<clipPath id="clip0_2113_30">
<rect width="272" height="90" fill="white"/>
</clipPath>
</defs>
</svg>
